<svg xmlns="http://www.w3.org/2000/svg" style="position:absolute; width: 0; height: 0"><defs><filter id="avatar-blank-a"> <feFlood result="shadow-flood" x="250" width="250" height="500" flood-color="#8B572A" flood-opacity=".2"></feFlood><feComposite operator="in" in2="SourceGraphic" in="shadow-flood" result="shadow-area"></feComposite><feBlend in="SourceGraphic" in2="shadow-area" mode="multiply"></feBlend></filter></defs><symbol viewBox="0 0 24 24" id="icon-add"><g class="feather feather-plus" fill="none" stroke="currentColor" stroke-width="2" stroke-linecap="round" stroke-linejoin="round"><path d="M12 5v14M5 12h14"></path></g></symbol><symbol viewBox="0 0 21 21" id="icon-adestra-clover-inverted"><g fill-rule="nonzero" fill="currentColor"><path d="M16.982 10.042a5.713 5.713 0 0 0-1.555-.214c-3.15 0-5.705 2.549-5.705 5.692 0 .544.076 1.07.22 1.568a5.095 5.095 0 0 1-4.849 3.522A5.088 5.088 0 0 1 0 15.527a5.087 5.087 0 0 1 3.581-4.855c.482.131.99.203 1.514.203 3.152 0 5.706-2.549 5.706-5.693a5.7 5.7 0 0 0-.21-1.532A5.095 5.095 0 0 1 15.446.11a5.088 5.088 0 0 1 5.093 5.084 5.086 5.086 0 0 1-3.556 4.847"></path><path d="M5.093 10.278A5.088 5.088 0 0 1 0 5.195 5.089 5.089 0 0 1 5.093.11a5.089 5.089 0 0 1 5.094 5.084 5.089 5.089 0 0 1-5.094 5.083M15.445 20.61a5.088 5.088 0 0 1-5.093-5.083 5.089 5.089 0 0 1 5.093-5.083 5.088 5.088 0 0 1 5.093 5.083 5.088 5.088 0 0 1-5.093 5.083" opacity=".7"></path></g></symbol><symbol viewBox="0 0 21 21" id="icon-adestra-clover"><g fill-rule="nonzero" fill="currentColor"><path d="M16.982 10.042a5.713 5.713 0 0 0-1.555-.214c-3.15 0-5.705 2.549-5.705 5.692 0 .544.076 1.07.22 1.568a5.095 5.095 0 0 1-4.849 3.522A5.088 5.088 0 0 1 0 15.527a5.087 5.087 0 0 1 3.581-4.855c.482.131.99.203 1.514.203 3.152 0 5.706-2.549 5.706-5.693a5.7 5.7 0 0 0-.21-1.532A5.095 5.095 0 0 1 15.446.11a5.088 5.088 0 0 1 5.093 5.084 5.086 5.086 0 0 1-3.556 4.847" opacity=".7"></path><path d="M5.093 10.278A5.088 5.088 0 0 1 0 5.195 5.089 5.089 0 0 1 5.093.11a5.089 5.089 0 0 1 5.094 5.084 5.089 5.089 0 0 1-5.094 5.083M15.445 20.61a5.088 5.088 0 0 1-5.093-5.083 5.089 5.089 0 0 1 5.093-5.083 5.088 5.088 0 0 1 5.093 5.083 5.088 5.088 0 0 1-5.093 5.083"></path></g></symbol><symbol viewBox="0 0 24 24" id="icon-admin"><g class="feather feather-sliders" fill="none" stroke="currentColor" stroke-width="2" stroke-linecap="round" stroke-linejoin="round"><path d="M4 21v-7M4 10V3M12 21v-9M12 8V3M20 21v-5M20 12V3M1 14h6M9 8h6M17 16h6"></path></g></symbol><symbol viewBox="0 0 24 21" id="icon-alert"><g transform="translate(1 1)" fill="none" fill-rule="evenodd"><path d="M9.29 1.86L.82 16a2 2 0 0 0 1.71 3h16.94a2 2 0 0 0 1.71-3L12.71 1.86a2 2 0 0 0-3.42 0zM11 7v4" stroke="currentColor" stroke-width="2" stroke-linecap="round" stroke-linejoin="round"></path><circle fill="currentColor" cx="11" cy="15" r="1"></circle></g></symbol><symbol viewBox="0 0 24 24" id="icon-automation"><g class="feather feather-fast-forward" fill="none" stroke="currentColor" stroke-width="2" stroke-linecap="round" stroke-linejoin="round"><path d="M13 19l9-7-9-7v14zM2 19l9-7-9-7v14z"></path></g></symbol><symbol viewBox="0 0 500 500" id="icon-avatar-blank"><path fill="#d8d8d8" d="M0 0h500v500H0z"></path><path d="M250 146h66l184 123v231H250z" opacity=".1"></path><path d="M250 109c-27 0-47 12-60 27-16 18-16 55-17 70-12 0-20 5-20 19s9 31 20 31c4 26 16 48 39 60v47c-8 2-28 7-59 15-47 12-67 30-72 122h338c-5-92-25-110-72-122-31-8-51-13-59-15v-47c23-12 35-34 39-60 13 0 20-17 20-31s-7.5-19-20-19c-1-15-4-55-17-70s-33-27-60-27z" fill="#aaa" filter="url(#avatar-blank-a)"></path></symbol><symbol viewBox="0 0 500 500" id="icon-avatar-body"><path d="M250 109c-27 0-47 12-60 27-16 18-16 55-17 70-12 0-20 5-20 19s9 31 20 31c4 26 16 48 39 60v47c-8 2-28 7-59 15-47 12-67 30-72 122h338c-5-92-25-110-72-122-31-8-51-13-59-15v-47c23-12 35-34 39-60 13 0 20-17 20-31s-7.5-19-20-19c-1-15-4-55-17-70s-33-27-60-27z" fill="currentColor"></path></symbol><symbol viewBox="0 0 500 500" id="icon-avatar-chin"><path d="M230 327l20 8v14z" fill="currentColor" opacity=".2"></path></symbol><symbol viewBox="0 0 500 500" id="icon-avatar-shadow"><path d="M250 146h66l184 123v231H250z" opacity=".1"></path></symbol><symbol viewBox="0 0 24 24" id="icon-campaigns"><g stroke="currentColor" stroke-width="2" fill="none"><rect x="1" y="4" width="22" height="16" rx="3"></rect><path d="M1 6l9 7c1 1 3 1 4 0l9-7M1 18l8-6M23 18l-8-6"></path></g></symbol><symbol viewBox="0 0 24 24" id="icon-check"><path class="feather feather-check" d="M20 6L9 17l-5-5" fill="none" stroke="currentColor" stroke-width="2" stroke-linecap="round" stroke-linejoin="round"></path></symbol><symbol viewBox="0 0 14 9" id="icon-chevron-down"><path stroke="currentColor" stroke-width="2" d="M1.59 1.855l5.353 5.353 5.306-5.306" fill="none" fill-rule="evenodd" stroke-linecap="round" stroke-linejoin="round"></path></symbol><symbol viewBox="0 0 24 24" id="icon-chevron-left"><path class="feather feather-chevron-left" d="M15 18l-6-6 6-6" fill="none" stroke="currentColor" stroke-width="2" stroke-linecap="round" stroke-linejoin="round"></path></symbol><symbol viewBox="0 0 24 24" id="icon-chevron-right-end"><desc><![CDATA[Chevron left end rotated through 180 degrees]]></desc><path fill="none" stroke-width="2" stroke="currentColor" stroke-linecap="round" d="M4 22l10-10L4 2M17 22V2"></path></symbol><symbol viewBox="0 0 24 24" id="icon-chevron-right"><desc><![CDATA[Chevron left rotated through 180 degrees]]></desc><path fill="none" stroke-width="2" stroke="currentColor" stroke-linecap="round" stroke-linejoin="round" d="M7 22l10-10L7 2"></path></symbol><symbol viewBox="0 0 24 24" id="icon-clear"><g class="feather feather-x" fill="none" stroke="currentColor" stroke-width="2" stroke-linecap="round" stroke-linejoin="round"><path d="M16 8l-8 8M8 8l8 8"></path></g></symbol><symbol viewBox="0 0 24 24" id="icon-copy"><g class="feather feather-copy" fill="none" stroke="currentColor" stroke-width="2" stroke-linecap="round" stroke-linejoin="round"><rect x="9" y="9" width="13" height="13" rx="2" ry="2"></rect><path d="M5 15H4a2 2 0 0 1-2-2V4a2 2 0 0 1 2-2h9a2 2 0 0 1 2 2v1"></path></g></symbol><symbol viewBox="0 0 24 24" id="icon-data"><g class="feather feather-database" fill="none" stroke="currentColor" stroke-width="2" stroke-linecap="round" stroke-linejoin="round"><ellipse cx="12" cy="5" rx="9" ry="3"></ellipse><path d="M21 12c0 1.66-4 3-9 3s-9-1.34-9-3"></path><path d="M3 5v14c0 1.66 4 3 9 3s9-1.34 9-3V5"></path></g></symbol><symbol viewBox="0 0 24 24" id="icon-delete"><g class="feather feather-x" fill="none" stroke="currentColor" stroke-width="2" stroke-linecap="round" stroke-linejoin="round"><path d="M18 6L6 18M6 6l12 12"></path></g></symbol><symbol viewBox="0 0 24 24" id="icon-download"><g class="feather feather-download" fill="none" stroke="currentColor" stroke-width="2" stroke-linecap="round" stroke-linejoin="round"><path d="M21 15v4a2 2 0 0 1-2 2H5a2 2 0 0 1-2-2v-4M7 10l5 5 5-5M12 15V3"></path></g></symbol><symbol viewBox="0 0 24 24" id="icon-edit-2"><path class="feather feather-edit-2" d="M16 3l5 5L8 21H3v-5L16 3z" fill="none" stroke="currentColor" stroke-width="2" stroke-linecap="round" stroke-linejoin="round"></path></symbol><symbol viewBox="0 0 24 24" id="icon-edit-3"><g class="feather feather-edit-3" fill="none" stroke="currentColor" stroke-width="2" stroke-linecap="round" stroke-linejoin="round"><path d="M14 2l4 4L7 17H3v-4L14 2zM3 22h18"></path></g></symbol><symbol viewBox="0 0 28 28" id="icon-edit"><g class="feather feather-edit" fill="none" stroke="currentColor" stroke-width="2" stroke-linecap="round" stroke-linejoin="round"><path d="M22 16.66V22a2 2 0 0 1-2 2H6a2 2 0 0 1-2-2V8a2 2 0 0 1 2-2h5.34"></path><path d="M20 4l4 4-10 10h-4v-4L20 4z"></path></g></symbol><symbol viewBox="0 0 24 24" id="icon-files"><g class="feather feather-file-text" fill="none" stroke="currentColor" stroke-width="2" stroke-linecap="round" stroke-linejoin="round"><path d="M14 2H6a2 2 0 0 0-2 2v16a2 2 0 0 0 2 2h12a2 2 0 0 0 2-2V8z"></path><path d="M14 2v6h6M16 13H8M16 17H8M10 9H8"></path></g></symbol><symbol viewBox="0 0 24 24" id="icon-filter"><path class="feather feather-filter" d="M22 3H2l8 9.46V19l4 2v-8.54L22 3z" fill="none" stroke="currentColor" stroke-width="2" stroke-linecap="round" stroke-linejoin="round"></path></symbol><symbol viewBox="0 0 24 24" id="icon-folder"><path class="feather feather-folder" d="M22 19a2 2 0 0 1-2 2H4a2 2 0 0 1-2-2V5a2 2 0 0 1 2-2h5l2 3h9a2 2 0 0 1 2 2z" fill="none" stroke="currentColor" stroke-width="2" stroke-linecap="round" stroke-linejoin="round"></path></symbol><symbol viewBox="0 0 22 22" id="icon-help"><g transform="translate(1 1)" fill="none" fill-rule="evenodd"><path d="M7.09 7a3 3 0 0 1 5.83 1c0 2-3 3-3 3" stroke="currentColor" stroke-width="2" stroke-linecap="round" stroke-linejoin="round"></path><circle stroke="currentColor" stroke-width="2" stroke-linecap="round" stroke-linejoin="round" cx="10" cy="10" r="10"></circle><circle fill="currentColor" cx="10" cy="15" r="1"></circle></g></symbol><symbol viewBox="0 0 24 24" id="icon-home"><g class="feather feather-home" fill="none" stroke="currentColor" stroke-width="2" stroke-linecap="round" stroke-linejoin="round"><path d="M3 9l9-7 9 7v11a2 2 0 0 1-2 2H5a2 2 0 0 1-2-2z"></path><path d="M9 22V12h6v10"></path></g></symbol><symbol viewBox="0 0 24 24" id="icon-image"><g class="feather feather-image" fill="none" stroke="currentColor" stroke-width="2" stroke-linecap="round" stroke-linejoin="round"><rect x="3" y="3" width="18" height="18" rx="2" ry="2"></rect><circle cx="8.5" cy="8.5" r="1.5"></circle><path d="M21 15l-5-5L5 21"></path></g></symbol><symbol viewBox="0 0 22 22" id="icon-info"><g transform="translate(1 1)" fill="none" fill-rule="evenodd"><circle stroke="currentColor" stroke-width="2" stroke-linecap="round" stroke-linejoin="round" cx="10" cy="10" r="10"></circle><path d="M10 14v-4" stroke="currentColor" stroke-width="2" stroke-linecap="round" stroke-linejoin="round"></path><circle fill="currentColor" cx="10" cy="6" r="1"></circle></g></symbol><symbol viewBox="0 0 24 24" id="icon-link"><g class="feather feather-link" fill="none" stroke="currentColor" stroke-width="2" stroke-linecap="round" stroke-linejoin="round"><path d="M10 13a5 5 0 0 0 7.54.54l3-3a5 5 0 0 0-7.07-7.07l-1.72 1.71"></path><path d="M14 11a5 5 0 0 0-7.54-.54l-3 3a5 5 0 0 0 7.07 7.07l1.71-1.71"></path></g></symbol><symbol viewBox="0 0 24 24" id="icon-list"><g transform="translate(2 5)" fill="none" fill-rule="evenodd"><path d="M6 1h13M6 7h13M6 13h13" stroke="currentColor" stroke-width="2" stroke-linecap="round" stroke-linejoin="round"></path><circle fill="currentColor" cx="1" cy="1" r="1"></circle><circle fill="currentColor" cx="1" cy="7" r="1"></circle><circle fill="currentColor" cx="1" cy="13" r="1"></circle></g></symbol><symbol viewBox="0 0 24 24" id="icon-menu"><g class="feather feather-menu" fill="none" stroke="currentColor" stroke-width="2" stroke-linecap="round" stroke-linejoin="round"><path d="M3 12h18M3 6h18M3 18h18"></path></g></symbol><symbol viewBox="0 0 458 458" id="icon-message-focus"><path d="M373 200c-7-2-12-5-15-11-1-1-2-6-2-10-4-27-16-40-41-42-10 0-17-4-20-11-2-4-3-8-1-13 2-8 8-13 17-14 5-1 17 1 25 3 9 2 22 9 29 14 17 14 29 40 29 63 0 5 0 7-2 10-2 5-6 8-9 10-3 1-8 1-10 1z" fill="currentColor"></path><path d="M431 198c-4-2-9-6-10-11-1-2-2-7-2-12-5-42-24-75-54-90-13-6-25-9-45-11-14-1-17-2-21-6-11-10-6-27 8-32 10-3 42 1 62 9 49 18 81 62 88 124 1 12 1 17-3 23-5 7-16 10-23 6z" fill="currentColor"></path><path fill-opacity=".39" fill="currentColor" d="M1 162h330v209H1z"></path><path d="M19 162c-10 0-18 8-18 19v171c0 6 3 13 9 16 6 4 13 4 19 0 6-3 10-10 9-16V216l117 78c6 4 14 4 21 0l117-78v136c0 6 3 13 9 16 6 4 13 4 19 0 6-3 10-10 10-16V181c0-7-4-14-10-17-7-3-14-3-20 1l-136 90-135-90c-3-2-7-3-11-3z" fill="currentColor"></path></symbol><symbol viewBox="0 0 24 24" id="icon-message-square"><path class="feather feather-message-square" d="M21 15a2 2 0 0 1-2 2H7l-4 4V5a2 2 0 0 1 2-2h14a2 2 0 0 1 2 2z" fill="none" stroke="currentColor" stroke-width="2" stroke-linecap="round" stroke-linejoin="round"></path></symbol><symbol viewBox="0 0 24 24" id="icon-more"><circle fill="currentColor" cx="12" cy="12" r="2"></circle><circle fill="currentColor" cx="19" cy="12" r="2"></circle><circle fill="currentColor" cx="5" cy="12" r="2"></circle></symbol><symbol viewBox="0 0 24 24" id="icon-pause"><g class="feather feather-pause" fill="none" stroke="currentColor" stroke-width="2" stroke-linecap="round" stroke-linejoin="round"><path d="M6 4h4v16H6zM14 4h4v16h-4z"></path></g></symbol><symbol viewBox="0 0 24 24" id="icon-phone"><path class="feather feather-phone" d="M22 16.92v3a2 2 0 0 1-2.18 2 19.79 19.79 0 0 1-8.63-3.07 19.5 19.5 0 0 1-6-6 19.79 19.79 0 0 1-3.07-8.67A2 2 0 0 1 4.11 2h3a2 2 0 0 1 2 1.72 12.84 12.84 0 0 0 .7 2.81 2 2 0 0 1-.45 2.11L8.09 9.91a16 16 0 0 0 6 6l1.27-1.27a2 2 0 0 1 2.11-.45 12.84 12.84 0 0 0 2.81.7A2 2 0 0 1 22 16.92z" fill="none" stroke="currentColor" stroke-width="2" stroke-linecap="round" stroke-linejoin="round"></path></symbol><symbol viewBox="0 0 168 206" id="icon-phrasee"><style><![CDATA[.st0{fill:#fe5000}]]></style><path class="st0" d="M164 84c0-45.4-37.8-82-83.7-79.9C37.4 6 4 42.2 4 85.1v107.7c0 7.7 8.3 12.1 14.4 7.3l34.7-32.8c4-3.1 9-4.6 14-4 3.2.4 13.6.6 16.9.6 43.5 0 78.8-34.7 79.9-77.9l.1-2z"></path></symbol><symbol viewBox="0 0 24 24" id="icon-pin"><g class="feather feather-settings" fill="inherit" stroke="currentColor" stroke-width="2" stroke-linecap="round" stroke-linejoin="round"><path d="M9.914 14.086L.5 23.5M21.414 8.586a.707.707 0 0 0 1 0l.793-.793a1 1 0 0 0 0-1.414L17.621.793a1 1 0 0 0-1.414 0l-.793.793a.707.707 0 0 0 0 1 .707.707 0 0 1 0 1l-4.207 4.207a1 1 0 0 1-.707.293H7.328a1 1 0 0 0-.707.293l-.5.5a1 1 0 0 0 0 1.414l7.586 7.586a1 1 0 0 0 1.414 0l.5-.5a1 1 0 0 0 .293-.707V13.5a1 1 0 0 1 .293-.707l4.207-4.207a.707.707 0 0 1 1 0z"></path></g></symbol><symbol viewBox="0 0 24 24" id="icon-play"><path class="feather feather-play" d="M5 3l14 9-14 9V3z" fill="none" stroke="currentColor" stroke-width="2" stroke-linecap="round" stroke-linejoin="round"></path></symbol><symbol viewBox="0 0 24 24" id="icon-radio"><g class="feather feather-radio" fill="none" stroke="currentColor" stroke-width="2" stroke-linecap="round" stroke-linejoin="round"><circle cx="12" cy="12" r="2"></circle><path d="M16.24 7.76a6 6 0 0 1 0 8.49m-8.48-.01a6 6 0 0 1 0-8.49m11.31-2.82a10 10 0 0 1 0 14.14m-14.14 0a10 10 0 0 1 0-14.14"></path></g></symbol><symbol viewBox="0 0 24 24" id="icon-refresh"><g class="feather feather-refresh-cw" fill="none" stroke="currentColor" stroke-width="2" stroke-linecap="round" stroke-linejoin="round"><path d="M23 4v6h-6M1 20v-6h6"></path><path d="M3.51 9a9 9 0 0 1 14.85-3.36L23 10M1 14l4.64 4.36A9 9 0 0 0 20.49 15"></path></g></symbol><symbol viewBox="0 0 24 24" id="icon-reports"><g class="feather feather-pie-chart" fill="none" stroke="currentColor" stroke-width="2" stroke-linecap="round" stroke-linejoin="round"><path d="M21.21 15.89A10 10 0 1 1 8 2.83M22 12A10 10 0 0 0 12 2v10z"></path></g></symbol><symbol viewBox="0 0 24 24" id="icon-search"><g class="feather feather-search" fill="none" stroke="currentColor" stroke-width="2" stroke-linecap="round" stroke-linejoin="round"><circle cx="11" cy="11" r="8"></circle><path d="M21 21l-4.35-4.35"></path></g></symbol><symbol viewBox="0 0 24 24" id="icon-send"><g class="feather feather-send" fill="none" stroke="currentColor" stroke-width="2" stroke-linecap="round" stroke-linejoin="round"><path d="M22 2L11 13M22 2l-7 20-4-9-9-4 20-7z"></path></g></symbol><symbol viewBox="0 0 24 24" id="icon-settings"><g class="feather feather-settings" fill="none" stroke="currentColor" stroke-width="2" stroke-linecap="round" stroke-linejoin="round"><circle cx="12" cy="12" r="3"></circle><path d="M19.4 15a1.65 1.65 0 0 0 .33 1.82l.06.06a2 2 0 0 1 0 2.83 2 2 0 0 1-2.83 0l-.06-.06a1.65 1.65 0 0 0-1.82-.33 1.65 1.65 0 0 0-1 1.51V21a2 2 0 0 1-2 2 2 2 0 0 1-2-2v-.09A1.65 1.65 0 0 0 9 19.4a1.65 1.65 0 0 0-1.82.33l-.06.06a2 2 0 0 1-2.83 0 2 2 0 0 1 0-2.83l.06-.06a1.65 1.65 0 0 0 .33-1.82 1.65 1.65 0 0 0-1.51-1H3a2 2 0 0 1-2-2 2 2 0 0 1 2-2h.09A1.65 1.65 0 0 0 4.6 9a1.65 1.65 0 0 0-.33-1.82l-.06-.06a2 2 0 0 1 0-2.83 2 2 0 0 1 2.83 0l.06.06a1.65 1.65 0 0 0 1.82.33H9a1.65 1.65 0 0 0 1-1.51V3a2 2 0 0 1 2-2 2 2 0 0 1 2 2v.09a1.65 1.65 0 0 0 1 1.51 1.65 1.65 0 0 0 1.82-.33l.06-.06a2 2 0 0 1 2.83 0 2 2 0 0 1 0 2.83l-.06.06a1.65 1.65 0 0 0-.33 1.82V9a1.65 1.65 0 0 0 1.51 1H21a2 2 0 0 1 2 2 2 2 0 0 1-2 2h-.09a1.65 1.65 0 0 0-1.51 1z"></path></g></symbol><symbol viewBox="0 0 24 24" id="icon-slash"><g class="feather feather-slash" fill="none" stroke="currentColor" stroke-width="2" stroke-linecap="round" stroke-linejoin="round"><circle cx="12" cy="12" r="10"></circle><path d="M4.93 4.93l14.14 14.14"></path></g></symbol><symbol viewBox="25 25 50 50" id="icon-spinner"><circle stroke-linecap="round" fill="none" stroke-miterlimit="10" stroke="currentColor" cx="50" cy="50" r="20"></circle></symbol><symbol viewBox="0 0 24 24" id="icon-split"><g stroke="currentColor" stroke-width="2" fill="none" fill-rule="evenodd"><path stroke-linecap="round" stroke-linejoin="round" d="M4 4h16v16H4z"></path><path d="M11.5 4.5v15" stroke-linecap="square" stroke-dasharray="2,4"></path></g></symbol><symbol viewBox="0 0 240 240" id="icon-standalone-error"><path d="M137.314 13.357l98.466 170.341c5.528 9.563 2.256 21.797-7.306 27.325a20 20 0 0 1-10.01 2.684H21.532c-11.046 0-20-8.954-20-20a20 20 0 0 1 2.685-10.009l98.466-170.34c5.528-9.564 17.761-12.835 27.324-7.307a20 20 0 0 1 7.307 7.306zM120 54c-7.732 0-14 6.268-14 14v56c0 7.732 6.268 14 14 14s14-6.268 14-14V68c0-7.732-6.268-14-14-14zm0 133c7.732 0 14-6.268 14-14s-6.268-14-14-14-14 6.268-14 14 6.268 14 14 14z" fill="#EAEAEA" fill-rule="evenodd"></path></symbol><symbol viewBox="0 0 240 240" id="icon-standalone-locked"><path d="M165 113V95c0-24.853-20.147-45-45-45S75 70.147 75 95v18H62v63h116v-63h-13zm-45 122C56.487 235 5 183.513 5 120S56.487 5 120 5s115 51.487 115 115-51.487 115-115 115zm0-161c11.598 0 21 9.402 21 21v18H99V95c0-11.598 9.402-21 21-21z" fill="#EAEAEA" fill-rule="evenodd"></path></symbol><symbol viewBox="0 0 240 240" id="icon-standalone-maintenance"><g fill="none" fill-rule="evenodd"><path d="M120 235C56.487 235 5 183.513 5 120S56.487 5 120 5s115 51.487 115 115-51.487 115-115 115zm43.727-97.273a9.75 9.75 0 0 1 8.923-5.909h.532c6.527 0 11.818-5.291 11.818-11.818 0-6.527-5.291-11.818-11.818-11.818h-1.005a9.75 9.75 0 0 1-8.922-5.91v-.472a9.75 9.75 0 0 1 1.95-10.755l.354-.354a11.818 11.818 0 0 0 0-16.723 11.818 11.818 0 0 0-16.723 0l-.354.355a9.75 9.75 0 0 1-10.755 1.95 9.75 9.75 0 0 1-5.909-8.923v-.532C131.818 60.291 126.527 55 120 55c-6.527 0-11.818 5.291-11.818 11.818v1.005a9.75 9.75 0 0 1-5.91 8.922h-.472a9.75 9.75 0 0 1-10.755-1.95l-.354-.354a11.818 11.818 0 0 0-16.723 0 11.818 11.818 0 0 0 0 16.723l.355.354a9.75 9.75 0 0 1 1.95 10.755 9.75 9.75 0 0 1-8.923 6.382h-.532c-6.527 0-11.818 5.29-11.818 11.818 0 6.527 5.291 11.818 11.818 11.818h1.005a9.75 9.75 0 0 1 8.922 5.909 9.75 9.75 0 0 1-1.95 10.755l-.354.354a11.818 11.818 0 0 0 0 16.723 11.818 11.818 0 0 0 16.723 0l.354-.355a9.75 9.75 0 0 1 10.755-1.95 9.75 9.75 0 0 1 6.382 8.923v.532c0 6.527 5.29 11.818 11.818 11.818 6.527 0 11.818-5.291 11.818-11.818v-1.005a9.75 9.75 0 0 1 5.909-8.922 9.75 9.75 0 0 1 10.755 1.95l.354.354a11.818 11.818 0 0 0 16.723 0 11.818 11.818 0 0 0 0-16.723l-.355-.354a9.75 9.75 0 0 1-1.95-10.755zM119.5 143c-12.979 0-23.5-10.521-23.5-23.5S106.521 96 119.5 96s23.5 10.521 23.5 23.5-10.521 23.5-23.5 23.5z" fill="#EAEAEA"></path></g></symbol><symbol viewBox="0 0 240 240" id="icon-standalone-news"><path d="M96.731 160H180V80H60v80h12v24.731L96.731 160zM120 235C56.487 235 5 183.513 5 120S56.487 5 120 5s115 51.487 115 115-51.487 115-115 115z" fill="#EAEAEA" fill-rule="evenodd"></path></symbol><symbol viewBox="0 0 240 240" id="icon-standalone-password"><path d="M185.916 132.397l6.379 8.78a6 6 0 0 0 9.708-7.054l-6.717-9.244 11.096-3.606a6 6 0 0 0-3.708-11.412l-10.758 3.495V102a6 6 0 0 0-12 0v11.454l-11.06-3.593a6 6 0 0 0-3.708 11.412l11.34 3.685-6.659 9.165a6 6 0 1 0 9.708 7.054l6.38-8.78zm-125.53 0l6.379 8.78a6 6 0 0 0 9.708-7.054l-6.717-9.244 11.096-3.606a6 6 0 1 0-3.708-11.412l-10.758 3.495V102a6 6 0 1 0-12 0v11.454l-11.06-3.593a6 6 0 0 0-3.708 11.412l11.34 3.685-6.659 9.165a6 6 0 1 0 9.709 7.054l6.378-8.78zm62.53 0l6.379 8.78a6 6 0 0 0 9.708-7.054l-6.717-9.244 11.096-3.606a6 6 0 0 0-3.708-11.412l-10.758 3.495V102a6 6 0 0 0-12 0v11.454l-11.06-3.593a6 6 0 0 0-3.708 11.412l11.34 3.685-6.659 9.165a6 6 0 1 0 9.708 7.054l6.38-8.78zM120 235C56.487 235 5 183.513 5 120S56.487 5 120 5s115 51.487 115 115-51.487 115-115 115z" fill="#EAEAEA" fill-rule="evenodd"></path></symbol><symbol viewBox="0 0 240 240" id="icon-standalone-warning"><path d="M120 235C56.487 235 5 183.513 5 120S56.487 5 120 5s115 51.487 115 115-51.487 115-115 115zm0-181c-7.732 0-14 6.268-14 14v56c0 7.732 6.268 14 14 14s14-6.268 14-14V68c0-7.732-6.268-14-14-14zm0 133c7.732 0 14-6.268 14-14s-6.268-14-14-14-14 6.268-14 14 6.268 14 14 14z" fill="#EAEAEA" fill-rule="evenodd"></path></symbol><symbol viewBox="0 0 24 24" id="icon-stop"><path stroke="currentColor" stroke-width="2" d="M4 4h16v16H4z" fill="none" fill-rule="evenodd" stroke-linecap="round" stroke-linejoin="round"></path></symbol><symbol viewBox="0 0 19 19" id="icon-success"><g transform="translate(1 1)" fill="none" stroke="currentColor" stroke-width="2"><path stroke-linecap="round" stroke-linejoin="round" d="M12 6.146l-5.063 5.11L5 9.317"></path><circle cx="8.5" cy="8.5" r="8.5"></circle></g></symbol><symbol viewBox="0 0 25 25" id="icon-switch"><g fill="none" fill-rule="evenodd" stroke="currentColor" stroke-width="2"><path d="M20.5 7.5H4.469" stroke-linecap="round" stroke-linejoin="round"></path><path d="M4.5 7.5L11 12M4.5 7.5L11 3"></path><path d="M4.5 17.5h16.031" stroke-linecap="round" stroke-linejoin="round"></path><path d="M20.5 17.5L14 13M20.5 17.5L14 22"></path></g></symbol><symbol viewBox="0 0 24 24" id="icon-tick"><path class="feather feather-check" d="M20 6L9 17l-5-5" fill="none" stroke="currentColor" stroke-width="2" stroke-linecap="round" stroke-linejoin="round"></path></symbol><symbol viewBox="0 0 24 24" id="icon-trash"><g class="feather feather-trash-2" fill="none" stroke="currentColor" stroke-width="2" stroke-linecap="round" stroke-linejoin="round"><path d="M3 6h18M19 6v14a2 2 0 0 1-2 2H7a2 2 0 0 1-2-2V6m3 0V4a2 2 0 0 1 2-2h4a2 2 0 0 1 2 2v2M10 11v6M14 11v6"></path></g></symbol><symbol viewBox="0 0 28 28" id="icon-unlink"><g stroke="#000" stroke-width="2" fill="none" fill-rule="evenodd" stroke-linecap="round" stroke-linejoin="round"><path d="M15 12a5 5 0 0 0 7.54.54l3-3a5 5 0 0 0-7.07-7.07l-1.72 1.71M13 16a5 5 0 0 0-7.54-.54l-3 3a5 5 0 0 0 7.07 7.07l1.71-1.71M9.5 2.5l1.53 3.825M4.5 8.5l4 1M19.5 17.5l3.825 1.53M16.5 19.5l.808 4.04"></path></g></symbol><symbol viewBox="0 0 396 75" id="icon-upland-adestra-mono"><g fill="currentColor" fill-rule="nonzero"><path d="M150.8.2c0 1-31.4 11.2-70.7 11-39.4.2-70.8-10-70.8-11 0-1.2 31.4 3.2 70.8 3 39.3.1 70.8-4.2 70.7-3zM19 58.7A22.2 22.2 0 0 1 7.6 63C1.8 63 0 59.3 0 54.7V35.4h4.3v18.5c0 3.2 1 5.6 4.7 5.6s8-2.8 10-4.4V35.4h4.2v27h-4.3l.1-3.7zm17-19.3c2.6-2.5 6-3.9 9.5-4 5.7 0 10.3 4 10.3 14.1s-4.6 14.1-10.3 14.1c-3.6 0-7-1.5-9.6-4v14.8h-4.3V35.9H36v3.5zm0 16.3c2.1 2.6 5.3 4.1 8.6 4.3 4.5 0 6.9-4 6.9-10.5s-2.3-10.6-6.8-10.6a12 12 0 0 0-8.8 4.4l.1 12.4zm27.3 6.9h4.2V24.2h-4.2v38.4zm30.3-3.2a15 15 0 0 1-10 4.2c-4.5 0-9.2-2.4-9.2-8.7 0-6.3 4.5-8.8 9.4-8.8 3.2 0 7.7 1 9.8 1.5v-3.1c0-3.8-1.2-5.7-5.7-5.7-3 0-6.3 1-10 2.3L76.2 38c3.9-1.6 8-2.4 12.2-2.6 6 0 9.4 2.4 9.4 9V63h-4.3l.1-3.6zm0-9.3c-2.7-.7-5.4-1-8.2-1.2-5 0-6.6 2.7-6.6 5.8 0 3.9 2.5 5.3 5.8 5.3 3.6 0 6.5-1.7 9-4v-5.9zm16.8-10.3c2-1.6 6.5-4.4 11.1-4.4 6 0 7.8 3.8 7.8 8.3V63H125V44.5c0-3.1-1-5.6-4.7-5.6s-8.1 2.8-10 4.4V63h-4.2V36h4.3v3.8zm45.3 22.8V59a14 14 0 0 1-9.5 4.1c-5.8 0-10.4-4.1-10.4-14s4.6-14.2 10.4-14.2c3.6.1 7 1.6 9.5 4.1V24.2h4.3v38.4h-4.3zm0-19.8a12.1 12.1 0 0 0-8.7-4.3c-4.5 0-6.8 4-6.8 10.5s2.3 10.6 6.8 10.6c3.4 0 6.6-2 8.7-4.4V42.8zM216.54 63h-5.64l-3.72-10.26h-19.44L184.02 63h-5.64l16.26-42h5.64l16.26 42zm-10.92-14.52l-8.16-22.68-8.22 22.68h16.38zm43.68-29.22V63h-4.98v-4.08c-3.42 3.18-7.08 4.74-11.1 4.74-7.14 0-12-5.34-12-16.38s4.86-16.44 12-16.44c3.9 0 7.56 1.56 11.1 4.74V19.26h4.98zm-15.12 40.26c3.66 0 7.08-1.68 10.14-5.04v-14.4c-3.06-3.42-6.42-5.1-10.14-5.1-5.1 0-7.92 4.56-7.92 12.3 0 7.74 2.82 12.24 7.92 12.24zM285 48l-.06.54h-22.5c.42 6.9 3.96 11.16 9.06 11.16 3.06 0 6.96-1.44 11.76-4.26l2.28 3.3c-1.62.96-2.88 1.68-3.78 2.16-.9.48-2.46 1.08-4.56 1.74-2.1.66-4.14 1.02-6 1.02-4.02 0-7.32-1.44-9.96-4.26-2.58-2.82-3.9-6.9-3.9-12.12 0-5.22 1.32-9.24 4.02-12.12 2.7-2.88 6.24-4.32 10.62-4.32 8.58 0 13.38 5.46 13.38 13.62 0 1.38-.18 2.88-.36 3.54zm-13.08-13.32c-5.46 0-8.88 3.96-9.42 10.62h17.88c.18-7.08-2.64-10.62-8.46-10.62zm33.54 10.26c7.44 1.98 11.4 4.74 11.4 9.96 0 2.82-1.08 5.04-3.3 6.54-2.16 1.5-4.86 2.22-8.16 2.22-4.74 0-9.42-1.26-14.04-3.84l2.22-3.66c4.38 2.34 8.28 3.48 11.58 3.48 3.66 0 6.72-1.68 6.72-4.56 0-2.16-1.8-3.84-5.46-5.04-.72-.24-1.8-.54-3.18-.96l-.72-.18c-2.94-.78-4.68-1.44-7.02-2.88-2.22-1.44-3.48-3.66-3.48-6.54 0-5.34 4.38-8.64 11.04-8.64 3.96 0 8.1 1.08 12.42 3.18l-2.16 3.48c-3.78-1.74-7.14-2.64-10.14-2.64-3.66 0-6.24 1.68-6.24 4.38 0 1.68.9 2.94 2.76 3.84 1.86.9 2.82 1.14 5.04 1.68.3.06.54.12.72.18zm20.34-9.6h-4.44V31.5h4.44v-7.92l4.86-1.2v9.12h8.7v3.84h-8.7v20.64c0 2.22 1.02 3.3 3 3.3 1.56 0 3.54-.54 6-1.62l1.86 3.78c-3.24 1.5-6.12 2.22-8.7 2.22-4.68 0-7.02-2.64-7.02-7.92v-20.4zm21.42-3.84h4.98v6.72c.42-.96 1.08-2.16 2.94-4.08 1.86-1.98 5.16-3.24 9-3v4.74c-4.02 0-7.26 1.56-8.88 3.48-1.62 1.92-2.64 4.02-2.88 5.4l-.18 1.02V63h-4.98V31.5zM395.64 63h-4.98v-4.2c-3.54 3.24-7.44 4.86-11.7 4.86-2.88 0-5.34-.84-7.44-2.52-2.1-1.68-3.12-4.2-3.12-7.56 0-6.72 4.68-10.26 10.92-10.26 1.08 0 2.34.12 3.72.3 1.38.18 2.94.48 4.68.84 1.74.3 2.76.48 2.94.54v-3.54c0-4.62-1.62-6.6-6.6-6.6-2.46 0-6.36.9-11.7 2.64l-1.8-3.66c5.58-1.98 10.26-3 14.16-3 7.2 0 10.92 3.06 10.92 10.44V63zm-15.48-3.48c3.66 0 7.14-1.56 10.5-4.62V48c-4.74-.9-7.86-1.38-9.48-1.38-5.34 0-7.68 2.7-7.68 6.72 0 4.14 2.22 6.18 6.66 6.18z"></path></g></symbol><symbol viewBox="0 0 402 75" id="icon-upland-adestra"><g fill="none" fill-rule="evenodd"><path d="M150.8.2c0 1-31.4 11.2-70.7 11-39.4.2-70.8-10-70.8-11 0-1.2 31.4 3.2 70.8 3 39.3.1 70.8-4.2 70.7-3z" fill="#0091D1"></path><path d="M19 58.7A22.2 22.2 0 0 1 7.6 63C1.8 63 0 59.3 0 54.7V35.4h4.3v18.5c0 3.2 1 5.6 4.7 5.6s8-2.8 10-4.4V35.4h4.2v27h-4.3l.1-3.7zm17-19.3c2.6-2.5 6-3.9 9.5-4 5.7 0 10.3 4 10.3 14.1s-4.6 14.1-10.3 14.1c-3.6 0-7-1.5-9.6-4v14.8h-4.3V35.9H36v3.5zm0 16.3c2.1 2.6 5.3 4.1 8.6 4.3 4.5 0 6.9-4 6.9-10.5s-2.3-10.6-6.8-10.6a12 12 0 0 0-8.8 4.4l.1 12.4zm27.3 6.9h4.2V24.2h-4.2v38.4zm30.3-3.2a15 15 0 0 1-10 4.2c-4.5 0-9.2-2.4-9.2-8.7 0-6.3 4.5-8.8 9.4-8.8 3.2 0 7.7 1 9.8 1.5v-3.1c0-3.8-1.2-5.7-5.7-5.7-3 0-6.3 1-10 2.3L76.2 38c3.9-1.6 8-2.4 12.2-2.6 6 0 9.4 2.4 9.4 9V63h-4.3l.1-3.6zm0-9.3c-2.7-.7-5.4-1-8.2-1.2-5 0-6.6 2.7-6.6 5.8 0 3.9 2.5 5.3 5.8 5.3 3.6 0 6.5-1.7 9-4v-5.9zm16.8-10.3c2-1.6 6.5-4.4 11.1-4.4 6 0 7.8 3.8 7.8 8.3V63H125V44.5c0-3.1-1-5.6-4.7-5.6s-8.1 2.8-10 4.4V63h-4.2V36h4.3v3.8zm45.3 22.8V59a14 14 0 0 1-9.5 4.1c-5.8 0-10.4-4.1-10.4-14s4.6-14.2 10.4-14.2c3.6.1 7 1.6 9.5 4.1V24.2h4.3v38.4h-4.3zm0-19.8a12.1 12.1 0 0 0-8.7-4.3c-4.5 0-6.8 4-6.8 10.5s2.3 10.6 6.8 10.6c3.4 0 6.6-2 8.7-4.4V42.8z" fill="#2A3941" fill-rule="nonzero"></path><path d="M216.54 63h-5.64l-3.72-10.26h-19.44L184.02 63h-5.64l16.26-42h5.64l16.26 42zm-10.92-14.52l-8.16-22.68-8.22 22.68h16.38zm43.68-29.22V63h-4.98v-4.08c-3.42 3.18-7.08 4.74-11.1 4.74-7.14 0-12-5.34-12-16.38s4.86-16.44 12-16.44c3.9 0 7.56 1.56 11.1 4.74V19.26h4.98zm-15.12 40.26c3.66 0 7.08-1.68 10.14-5.04v-14.4c-3.06-3.42-6.42-5.1-10.14-5.1-5.1 0-7.92 4.56-7.92 12.3 0 7.74 2.82 12.24 7.92 12.24zM285 48l-.06.54h-22.5c.42 6.9 3.96 11.16 9.06 11.16 3.06 0 6.96-1.44 11.76-4.26l2.28 3.3c-1.62.96-2.88 1.68-3.78 2.16-.9.48-2.46 1.08-4.56 1.74-2.1.66-4.14 1.02-6 1.02-4.02 0-7.32-1.44-9.96-4.26-2.58-2.82-3.9-6.9-3.9-12.12 0-5.22 1.32-9.24 4.02-12.12 2.7-2.88 6.24-4.32 10.62-4.32 8.58 0 13.38 5.46 13.38 13.62 0 1.38-.18 2.88-.36 3.54zm-13.08-13.32c-5.46 0-8.88 3.96-9.42 10.62h17.88c.18-7.08-2.64-10.62-8.46-10.62zm33.54 10.26c7.44 1.98 11.4 4.74 11.4 9.96 0 2.82-1.08 5.04-3.3 6.54-2.16 1.5-4.86 2.22-8.16 2.22-4.74 0-9.42-1.26-14.04-3.84l2.22-3.66c4.38 2.34 8.28 3.48 11.58 3.48 3.66 0 6.72-1.68 6.72-4.56 0-2.16-1.8-3.84-5.46-5.04-.72-.24-1.8-.54-3.18-.96l-.72-.18c-2.94-.78-4.68-1.44-7.02-2.88-2.22-1.44-3.48-3.66-3.48-6.54 0-5.34 4.38-8.64 11.04-8.64 3.96 0 8.1 1.08 12.42 3.18l-2.16 3.48c-3.78-1.74-7.14-2.64-10.14-2.64-3.66 0-6.24 1.68-6.24 4.38 0 1.68.9 2.94 2.76 3.84 1.86.9 2.82 1.14 5.04 1.68.3.06.54.12.72.18zm20.34-9.6h-4.44V31.5h4.44v-7.92l4.86-1.2v9.12h8.7v3.84h-8.7v20.64c0 2.22 1.02 3.3 3 3.3 1.56 0 3.54-.54 6-1.62l1.86 3.78c-3.24 1.5-6.12 2.22-8.7 2.22-4.68 0-7.02-2.64-7.02-7.92v-20.4zm21.42-3.84h4.98v6.72c.42-.96 1.08-2.16 2.94-4.08 1.86-1.98 5.16-3.24 9-3v4.74c-4.02 0-7.26 1.56-8.88 3.48-1.62 1.92-2.64 4.02-2.88 5.4l-.18 1.02V63h-4.98V31.5zM395.64 63h-4.98v-4.2c-3.54 3.24-7.44 4.86-11.7 4.86-2.88 0-5.34-.84-7.44-2.52-2.1-1.68-3.12-4.2-3.12-7.56 0-6.72 4.68-10.26 10.92-10.26 1.08 0 2.34.12 3.72.3 1.38.18 2.94.48 4.68.84 1.74.3 2.76.48 2.94.54v-3.54c0-4.62-1.62-6.6-6.6-6.6-2.46 0-6.36.9-11.7 2.64l-1.8-3.66c5.58-1.98 10.26-3 14.16-3 7.2 0 10.92 3.06 10.92 10.44V63zm-15.48-3.48c3.66 0 7.14-1.56 10.5-4.62V48c-4.74-.9-7.86-1.38-9.48-1.38-5.34 0-7.68 2.7-7.68 6.72 0 4.14 2.22 6.18 6.66 6.18z" fill="#0091D1" fill-rule="nonzero"></path></g></symbol><symbol viewBox="0 0 24 24" id="icon-user"><g class="feather feather-user" fill="none" stroke="currentColor" stroke-width="2" stroke-linecap="round" stroke-linejoin="round"><path d="M20 21v-2a4 4 0 0 0-4-4H8a4 4 0 0 0-4 4v2"></path><circle cx="12" cy="7" r="4"></circle></g></symbol><symbol viewBox="0 0 24 24" id="icon-view"><g class="feather feather-eye" fill="none" stroke="currentColor" stroke-width="2" stroke-linecap="round" stroke-linejoin="round"><path d="M1 12s4-8 11-8 11 8 11 8-4 8-11 8-11-8-11-8z"></path><circle cx="12" cy="12" r="3"></circle></g></symbol></svg>