<svg xmlns="http://www.w3.org/2000/svg" height="48" viewBox="0 96 960 960" width="48"><path fill="seagreen" d="M576 1016q-25 0-42.5-17.5T516 956V676q0-25 17.5-42.5T576 616h280q25 0 42.5 17.5T916 676v280q0 25-17.5 42.5T856 1016H576Zm0-60h280v-32q-25-31-61-49.5T716 856q-43 0-79 18.5T576 924v32Zm140-140q25 0 42.5-17.5T776 756q0-25-17.5-42.5T716 696q-25 0-42.5 17.5T656 756q0 25 17.5 42.5T716 816ZM480 576Zm0-130q-54 0-92 38t-38 92q0 43 24 76t62 47v-68q-11-9-18.5-24.5T410 576q0-29 20.5-49.5T480 506q18 0 33 8t24 22h66q-13-39-46.5-64.5T480 446Zm-92 530-20-126q-19-7-40-19t-37-25l-118 54-93-164 108-79q-2-9-2.5-20.5T185 576q0-9 .5-20.5T188 535L80 456l93-164 118 54q16-13 37-25t40-18l20-127h184l20 126q19 7 40.5 18.5T669 346l118-54 93 164-108 80v1-1h-61q-1-7-2-13.5t-3-13.5l94-69-40-72-106 46q-23-26-52-43.5T538 348l-14-112h-88l-14 112q-34 7-63.5 24T306 414l-106-46-40 72 94 69q-4 17-6.5 33.5T245 576q0 17 2.5 33.5T254 643l-94 69 40 72 106-46q26 26 59.5 43.5T436 807v169h-48Z"/></svg>